<?xml version="1.0" encoding="utf-8"?><svg xmlns="http://www.w3.org/2000/svg" xmlns:xlink="http://www.w3.org/1999/xlink"><symbol viewBox="0 0 24 24" id="arrow_down" xmlns="http://www.w3.org/2000/svg"><path d="M7.41 8.29688L12 12.8769L16.59 8.29688L18 9.70687L12 15.7069L6 9.70687L7.41 8.29688Z"/></symbol><symbol viewBox="0 0 24 24" id="bag" xmlns="http://www.w3.org/2000/svg"><path d="M18 6H16C16 3.79 14.21 2 12 2C9.79 2 8 3.79 8 6H6C4.9 6 4 6.9 4 8V20C4 21.1 4.9 22 6 22H18C19.1 22 20 21.1 20 20V8C20 6.9 19.1 6 18 6ZM12 4C13.1 4 14 4.9 14 6H10C10 4.9 10.9 4 12 4ZM18 20H6V8H8V10C8 10.55 8.45 11 9 11C9.55 11 10 10.55 10 10V8H14V10C14 10.55 14.45 11 15 11C15.55 11 16 10.55 16 10V8H18V20Z"/></symbol><symbol viewBox="0 0 25 24" id="close" xmlns="http://www.w3.org/2000/svg"><path d="M19.5 6.41L18.09 5L12.5 10.59L6.91 5L5.5 6.41L11.09 12L5.5 17.59L6.91 19L12.5 13.41L18.09 19L19.5 17.59L13.91 12L19.5 6.41Z"/></symbol><symbol viewBox="0 0 24 24" id="favorite" xmlns="http://www.w3.org/2000/svg"><path d="M11.2232 19.1147L11.2217 19.1134C8.62662 16.7602 6.55384 14.878 5.1178 13.1223C3.69324 11.3807 3 9.88574 3 8.32422C3 5.7965 4.97228 3.82422 7.5 3.82422C8.93721 3.82422 10.3322 4.49815 11.2386 5.56256L12 6.45662L12.7614 5.56256C13.6678 4.49815 15.0628 3.82422 16.5 3.82422C19.0277 3.82422 21 5.7965 21 8.32422C21 9.88575 20.3068 11.3807 18.882 13.1239C17.4459 14.8808 15.3734 16.7651 12.7786 19.1232C12.7782 19.1235 12.7778 19.1238 12.7775 19.1241L12.0026 19.8242L11.2232 19.1147Z" stroke-width="2"/></symbol><symbol viewBox="0 0 25 24" id="mob_menu_icon" xmlns="http://www.w3.org/2000/svg"><path d="M3.5 18H21.5V16H3.5V18ZM3.5 13H21.5V11H3.5V13ZM3.5 6V8H21.5V6H3.5Z"/></symbol><symbol viewBox="0 0 16 18" id="person" xmlns="http://www.w3.org/2000/svg"><path d="M14.39 11.5756C12.71 10.7156 10.53 10.0156 8 10.0156C5.47 10.0156 3.29 10.7156 1.61 11.5756C0.61 12.0856 0 13.1156 0 14.2356V17.0156H16V14.2356C16 13.1156 15.39 12.0856 14.39 11.5756ZM14 15.0156H2V14.2356C2 13.8556 2.2 13.5156 2.52 13.3556C3.71 12.7456 5.63 12.0156 8 12.0156C10.37 12.0156 12.29 12.7456 13.48 13.3556C13.8 13.5156 14 13.8556 14 14.2356V15.0156Z"/><path d="M8 9.01562C10.21 9.01562 12 7.22563 12 5.01562C12 3.64563 12 1.51562 12 1.51562C12 0.685625 11.33 0.015625 10.5 0.015625C9.98 0.015625 9.52 0.285625 9.25 0.685625C8.98 0.285625 8.52 0.015625 8 0.015625C7.48 0.015625 7.02 0.285625 6.75 0.685625C6.48 0.285625 6.02 0.015625 5.5 0.015625C4.67 0.015625 4 0.685625 4 1.51562C4 1.51562 4 3.63562 4 5.01562C4 7.22563 5.79 9.01562 8 9.01562ZM6 2.51562H10V5.01562C10 6.11562 9.1 7.01562 8 7.01562C6.9 7.01562 6 6.11562 6 5.01562V2.51562Z"/></symbol><symbol viewBox="0 0 24 24" id="profile" xmlns="http://www.w3.org/2000/svg"><path d="M18.39 15.06C16.71 14.2 14.53 13.5 12 13.5C9.47 13.5 7.29 14.2 5.61 15.06C4.61 15.57 4 16.6 4 17.72V20.5H20V17.72C20 16.6 19.39 15.57 18.39 15.06ZM18 18.5H6V17.72C6 17.34 6.2 17 6.52 16.84C7.71 16.23 9.63 15.5 12 15.5C14.37 15.5 16.29 16.23 17.48 16.84C17.8 17 18 17.34 18 17.72V18.5Z"/><path d="M12 12.5C14.21 12.5 16 10.71 16 8.5C16 7.13 16 5 16 5C16 4.17 15.33 3.5 14.5 3.5C13.98 3.5 13.52 3.77 13.25 4.17C12.98 3.77 12.52 3.5 12 3.5C11.48 3.5 11.02 3.77 10.75 4.17C10.48 3.77 10.02 3.5 9.5 3.5C8.67 3.5 8 4.17 8 5C8 5 8 7.12 8 8.5C8 10.71 9.79 12.5 12 12.5ZM10 6H14V8.5C14 9.6 13.1 10.5 12 10.5C10.9 10.5 10 9.6 10 8.5V6Z"/></symbol><symbol viewBox="0 0 24 24" id="search" xmlns="http://www.w3.org/2000/svg"><path d="M15.7549 14.2539H14.9649L14.6849 13.9839C15.6649 12.8439 16.2549 11.3639 16.2549 9.75391C16.2549 6.16391 13.3449 3.25391 9.75488 3.25391C6.16488 3.25391 3.25488 6.16391 3.25488 9.75391C3.25488 13.3439 6.16488 16.2539 9.75488 16.2539C11.3649 16.2539 12.8449 15.6639 13.9849 14.6839L14.2549 14.9639V15.7539L19.2549 20.7439L20.7449 19.2539L15.7549 14.2539ZM9.75488 14.2539C7.26488 14.2539 5.25488 12.2439 5.25488 9.75391C5.25488 7.26391 7.26488 5.25391 9.75488 5.25391C12.2449 5.25391 14.2549 7.26391 14.2549 9.75391C14.2549 12.2439 12.2449 14.2539 9.75488 14.2539Z"/></symbol></svg>