<svg width="16" height="18" viewBox="0 0 16 18" fill="none" xmlns="http://www.w3.org/2000/svg">
<path d="M14.39 11.5756C12.71 10.7156 10.53 10.0156 8 10.0156C5.47 10.0156 3.29 10.7156 1.61 11.5756C0.61 12.0856 0 13.1156 0 14.2356V17.0156H16V14.2356C16 13.1156 15.39 12.0856 14.39 11.5756ZM14 15.0156H2V14.2356C2 13.8556 2.2 13.5156 2.52 13.3556C3.71 12.7456 5.63 12.0156 8 12.0156C10.37 12.0156 12.29 12.7456 13.48 13.3556C13.8 13.5156 14 13.8556 14 14.2356V15.0156Z" fill="#202020"/>
<path d="M8 9.01562C10.21 9.01562 12 7.22563 12 5.01562C12 3.64563 12 1.51562 12 1.51562C12 0.685625 11.33 0.015625 10.5 0.015625C9.98 0.015625 9.52 0.285625 9.25 0.685625C8.98 0.285625 8.52 0.015625 8 0.015625C7.48 0.015625 7.02 0.285625 6.75 0.685625C6.48 0.285625 6.02 0.015625 5.5 0.015625C4.67 0.015625 4 0.685625 4 1.51562C4 1.51562 4 3.63562 4 5.01562C4 7.22563 5.79 9.01562 8 9.01562ZM6 2.51562H10V5.01562C10 6.11562 9.1 7.01562 8 7.01562C6.9 7.01562 6 6.11562 6 5.01562V2.51562Z" fill="#202020"/>
</svg>
